<?xml version="1.0" encoding="utf-8"?>
<!-- Generator: Adobe Illustrator 18.1.0, SVG Export Plug-In . SVG Version: 6.00 Build 0)  -->
<!DOCTYPE svg PUBLIC "-//W3C//DTD SVG 1.1//EN" "http://www.w3.org/Graphics/SVG/1.1/DTD/svg11.dtd">
<svg version="1.1" id="Layer_1" xmlns="http://www.w3.org/2000/svg" xmlns:xlink="http://www.w3.org/1999/xlink" x="0px" y="0px"
	 viewBox="0 0 477 38" enable-background="new 0 0 477 38" xml:space="preserve">
<g>
	<defs>
		<rect id="SVGID_1_" x="0.1" y="0.6" width="476.1" height="37.4"/>
	</defs>
	<clipPath id="SVGID_2_">
		<use xlink:href="#SVGID_1_"  overflow="visible"/>
	</clipPath>
	<path clip-path="url(#SVGID_2_)" d="M11.8,15.5c3.8-2.4,7.7-3.5,11.6-3.5c3.8,0,6.6,1.3,8.6,3.9c4.9-3,7.9-3.9,12.2-3.9
		c3.4,0,6.2,0.9,7.8,2.5c1.2,1.3,1.9,3.5,1.9,6.7v10.3c0,1.7,0.6,2.5,2.3,2.9c0.7,0.2,0.9,0.3,0.9,0.8v1.2c0,0.4-0.2,0.6-0.7,0.6H43
		c-0.6,0-0.9-0.2-0.9-0.5v-1.4c0-0.2,0.3-0.4,1-0.6c1.6-0.3,2.2-1.2,2.2-2.9V21c0-2.8-2.1-4.5-5.5-4.5c-2.4,0-4.4,0.6-7,2.2v13
		c0,1.6,0.6,2.4,2.3,2.8c0.7,0.2,0.9,0.4,0.9,0.9v1.2c0,0.3-0.2,0.5-0.7,0.5H21.5c-0.2,0-0.4-0.3-0.4-0.7v-1c0-0.4,0.2-0.6,0.9-0.8
		c0.7-0.2,1.1-0.3,1.5-0.7c0.6-0.6,0.8-1.3,0.8-2.6V21.2c0-3-1.9-4.7-5.2-4.7c-2.4,0-4.6,0.7-7.4,2.3v12.9c0,1.7,0.9,2.7,2.5,3
		c0.6,0.1,0.7,0.2,0.7,0.6v1.1c0,0.5-0.2,0.7-0.7,0.7H0.4c-0.3,0-0.4-0.2-0.4-0.7v-1.1c0-0.4,0.2-0.5,0.8-0.6
		c0.8-0.1,1.2-0.3,1.8-0.9c0.4-0.4,0.6-1.1,0.6-1.9V17.9c0-1.5-0.8-2.4-2.3-2.7C0.2,15.1,0,14.9,0,14.5v-1.3c0-0.4,0.1-0.6,0.5-0.6
		h11.2V15.5"/>
</g>
<path d="M89.9,15.9c2.4,2.3,3.7,5.5,3.7,8.8c0,3.3-1.3,6.4-3.7,8.7c-3,3-7.2,4.5-12.6,4.5c-5.5,0-9.8-1.5-12.8-4.5
	C62,31,60.8,28.2,60.8,25c0-7.9,6.7-13.5,16.4-13.5C82.7,11.5,87,13,89.9,15.9 M70,25c0,2.4,0.6,5.3,1.4,6.7
	c1.2,2.1,3.2,3.2,5.7,3.2c1.9,0,3.6-0.6,4.8-2c1.6-1.6,2.2-4,2.2-8.1c0-4.8-1.1-7.9-3.5-9.3c-1-0.6-2.2-0.9-3.5-0.9
	C72.3,14.6,70,17.9,70,25z"/>
<path d="M120.7,9.5c0-1.4,0-3.2,0-3.7c-0.2-1.2-0.9-1.9-2.5-2.2c-0.6-0.1-0.8-0.2-0.8-0.6V1.7c0-0.2,0.2-0.5,0.4-0.5h11.4v30.1
	c0,1.9,0.7,2.9,2.5,3.3c0.7,0.1,0.9,0.3,0.9,0.8v1.2c0,0.3-0.2,0.6-0.6,0.6h-11.3v-2.7c-4.2,2.2-6.6,3-9.7,3
	c-7.4,0-12.8-5.3-12.8-12.7c0-3.4,1.1-6.2,3.4-8.6c2.7-2.7,6.5-4.2,10.6-4.2c2.8,0,5.9,0.7,8.4,2.1L120.7,9.5 M120.7,17.8
	c-2.3-1.3-4.2-1.8-6.2-1.8c-4.4,0-7.3,3.4-7.3,8.7c0,5,2.8,8.3,7.1,8.3c2.1,0,3.9-0.7,6.4-2.5V17.8z"/>
<path d="M146.5,24.6c0.1,2.6,0.4,4.1,1.5,5.6c1.6,2.1,3.8,3.2,7,3.2c3.6,0,7.2-1.3,9.8-3.7c0.4-0.4,0.9-0.7,1.1-0.7
	c0.1,0,0.4,0.2,0.9,0.9c0.1,0,0.1,0.1,0.2,0.2c0.1,0.2,0.2,0.2,0.2,0.3c0.5,0.6,0.8,1,0.8,1.1c0,0.4-1.7,1.9-3.3,3
	c-3.4,2.3-7.1,3.4-11.7,3.4c-5.1,0-9.4-1.5-12.2-4.2c-2.2-2.2-3.5-5.4-3.5-8.7c0-4.6,2.4-9,6.2-11.3c2.4-1.4,5.4-2.2,8.9-2.2
	c6,0,10.6,2.2,13.2,6.3c1.3,2,1.8,3.6,2.1,6.7H146.5 M158.4,21.1c-0.3-3.9-2.3-6-5.8-6c-3.4,0-5.5,2.1-5.8,6H158.4z"/>
<path d="M183.5,19.2L183.5,19.2c1.7-2.8,2.8-4.4,4.3-5.9c2-1.9,3.9-2.9,5.9-2.9c2.5,0,4.5,2.2,4.5,5c0,2.6-1.7,4.6-4.1,4.6
	c-1.8,0-3.2-1-4-3c-0.2-0.4-0.3-0.7-0.5-0.7c-0.3,0-1.2,0.8-2.1,2c-2.1,2.6-3.3,6-3.3,9.3v4.2c0,1.6,0.8,2.4,2.5,2.6
	c0.9,0.1,1.1,0.3,1.1,0.9v1c0,0.4-0.2,0.6-0.7,0.6h-14.3c-0.2,0-0.4-0.2-0.4-0.5v-1.1c0-0.5,0.2-0.7,1-0.8c0.7-0.2,1.1-0.4,1.6-0.7
	c0.4-0.5,0.6-1,0.6-2V18.3c0-2-0.6-2.8-2.6-3.1c-0.7-0.1-1-0.3-1-0.7v-1.2c0-0.5,0.2-0.6,0.8-0.6h10.8V19.2"/>
<path d="M214.6,15.4c4-2.4,7.1-3.3,10.9-3.3c6,0,9.4,2.7,9.4,7.6v12c0,1.6,0.8,2.6,2.4,2.9c0.6,0.1,0.7,0.2,0.7,0.8v1.1
	c0,0.3-0.2,0.5-0.6,0.5h-13.7c-0.4,0-0.6-0.2-0.6-0.5v-1.3c0-0.3,0.2-0.5,0.9-0.7c0.7-0.2,1.1-0.4,1.6-0.8c0.5-0.5,0.6-1.1,0.6-2.2
	V21.2c0-3-1.8-4.7-5.1-4.7c-2.3,0-4.2,0.6-6.7,2.1v13c0,1.5,0.6,2.4,2.1,2.7c0.7,0.2,1,0.4,1,0.9v1.1c0,0.5-0.1,0.7-0.5,0.7h-13.9
	c-0.4,0-0.6-0.2-0.6-0.6v-1.2c0-0.4,0.2-0.5,0.9-0.6c0.9-0.1,1.3-0.3,1.8-0.8c0.5-0.5,0.6-1,0.6-2V17.6c0-0.7-0.2-1.2-0.6-1.5
	c-0.1,0-0.1-0.1-0.1-0.1c-0.5-0.5-1-0.7-1.9-0.7c-0.7-0.1-0.9-0.2-0.9-0.6v-1.4c0-0.4,0.5-0.6,1.3-0.6h10.7V15.4"/>
<path d="M283.2,12.5c0.6,0,0.9,0.2,0.9,0.8v2.5c0,0.4-0.2,0.6-0.6,0.6h-8.1v15.1c0,1.8,0.8,2.8,2.6,3c0.8,0.1,1,0.3,1,0.7v1.3
	c0,0.3-0.2,0.5-0.7,0.5h-14.2c-0.3,0-0.5-0.2-0.5-0.4v-1.4c0-0.5,0.2-0.6,0.8-0.7c0.8,0,1.2-0.2,1.8-0.7C267,33.2,267,33,267,32
	V16.5h-3.4c-0.3,0-0.5-0.2-0.5-0.6v-1.4c0-0.4,0.3-0.6,1.2-0.9c0.9-0.3,1.5-0.6,2-1.1c0.7-0.8,1-1.4,1.7-3.3c2.2-6,5.3-8.4,10.6-8.4
	c3.6,0,5.8,1.6,5.8,4.3c0,2-1.3,3.5-3.3,3.5c-2,0-3.3-1.2-3.8-3.6c-0.2-0.9-0.4-1.3-0.8-1.3c-0.6,0-1.1,0.7-1.1,1.9v7.2H283.2"/>
<path d="M320.3,36.2c-1.7,1.1-3,1.5-5,1.5c-3.6,0-5.9-1.2-7.4-3.9c-1.3,1.3-2.2,1.9-3.7,2.6c-2.1,0.8-4.4,1.3-6.9,1.3
	c-6.3,0-10.5-3-10.5-7.5c0-2.5,1.4-4.7,4.1-6.3c3.2-1.9,8.2-2.8,16.6-2.9c-0.1-4.6-2.3-6.6-7.2-6.6c-1.8,0-2.1,0.1-2.4,1.2
	c-0.2,0.9-0.4,1.3-1.1,2c-1.1,1-2.6,1.5-4.3,1.5c-2.2,0-3.6-1.1-3.6-2.9c0-3,4.5-4.8,12-4.8c10.5,0,15.2,2.7,15.2,8.9v10.9
	c0,1.4,1.2,2.6,2.6,2.6c0.4,0,1.1-0.1,1.8-0.3V36.2 M307.5,24.1c-4.1,0.1-6.2,0.3-7.9,0.9c-2.3,0.9-3.8,2.9-3.8,5
	c0,2.2,1.6,3.7,4.1,3.7c4.2,0,7.6-3.1,7.6-6.9V24.1z"/>
<path d="M335.7,19.2L335.7,19.2c1.7-2.8,2.8-4.4,4.3-5.9c2-1.9,3.9-2.9,5.9-2.9c2.5,0,4.5,2.2,4.5,5c0,2.6-1.7,4.6-4.1,4.6
	c-1.8,0-3.2-1-4-3c-0.2-0.4-0.3-0.7-0.5-0.7c-0.3,0-1.2,0.8-2.1,2c-2.1,2.6-3.3,6-3.3,9.3v4.2c0,1.6,0.8,2.4,2.5,2.6
	c0.9,0.1,1.1,0.3,1.1,0.9v1c0,0.4-0.2,0.6-0.7,0.6h-14.3c-0.2,0-0.4-0.2-0.4-0.5v-1.1c0-0.5,0.2-0.7,1-0.8c0.7-0.2,1.1-0.4,1.6-0.7
	c0.4-0.5,0.6-1,0.6-2V18.3c0-2-0.6-2.8-2.6-3.1c-0.7-0.1-1-0.3-1-0.7v-1.2c0-0.5,0.2-0.6,0.8-0.6h10.8V19.2"/>
<path d="M366,15.5c3.8-2.4,7.7-3.5,11.6-3.5c3.8,0,6.6,1.3,8.6,3.9c4.9-3,7.9-3.9,12.2-3.9c3.4,0,6.2,0.9,7.8,2.5
	c1.2,1.3,1.9,3.5,1.9,6.7v10.3c0,1.7,0.6,2.5,2.3,2.9c0.7,0.2,0.9,0.3,0.9,0.8v1.2c0,0.4-0.2,0.6-0.7,0.6h-13.3
	c-0.6,0-0.9-0.2-0.9-0.5v-1.4c0-0.2,0.3-0.4,1-0.6c1.6-0.3,2.2-1.2,2.2-2.9V21c0-2.8-2.1-4.5-5.5-4.5c-2.4,0-4.4,0.6-7,2.2v13
	c0,1.6,0.6,2.4,2.3,2.8c0.7,0.2,0.9,0.4,0.9,0.9v1.2c0,0.3-0.2,0.5-0.7,0.5h-13.9c-0.2,0-0.4-0.3-0.4-0.7v-1c0-0.4,0.2-0.6,0.9-0.8
	c0.7-0.2,1.1-0.3,1.5-0.7c0.6-0.6,0.8-1.3,0.8-2.6V21.2c0-3-1.9-4.7-5.2-4.7c-2.4,0-4.6,0.7-7.4,2.3v12.9c0,1.7,0.9,2.7,2.5,3
	c0.6,0.1,0.7,0.2,0.7,0.6v1.1c0,0.5-0.2,0.7-0.7,0.7h-13.9c-0.3,0-0.4-0.2-0.4-0.7v-1.1c0-0.4,0.2-0.5,0.8-0.6
	c0.8-0.1,1.2-0.3,1.8-0.9c0.4-0.4,0.6-1.1,0.6-1.9V17.9c0-1.5-0.8-2.4-2.3-2.7c-0.7-0.1-0.9-0.3-0.9-0.7v-1.3c0-0.4,0.1-0.6,0.5-0.6
	H366V15.5"/>
<path d="M424.4,24.6c0.1,2.6,0.4,4.1,1.5,5.6c1.6,2.1,3.8,3.2,7,3.2c3.6,0,7.2-1.3,9.8-3.7c0.4-0.4,0.9-0.7,1.1-0.7
	c0.1,0,0.4,0.2,0.9,0.9c0,0,0.1,0.1,0.1,0.2c0.1,0.2,0.2,0.2,0.2,0.3c0.5,0.6,0.8,1,0.8,1.1c0,0.4-1.7,1.9-3.3,3
	c-3.4,2.3-7.1,3.4-11.7,3.4c-5.1,0-9.4-1.5-12.2-4.2c-2.2-2.2-3.5-5.4-3.5-8.7c0-4.6,2.4-9,6.2-11.3c2.4-1.4,5.4-2.2,8.9-2.2
	c6,0,10.6,2.2,13.2,6.3c1.3,2,1.8,3.6,2.1,6.7H424.4 M436.3,21.1c-0.3-3.9-2.3-6-5.8-6c-3.4,0-5.5,2.1-5.8,6H436.3z"/>
<path d="M461.4,19.2h0.1c1.6-2.8,2.7-4.4,4.2-5.9c2-1.9,3.9-2.9,5.9-2.9c2.5,0,4.5,2.2,4.5,5c0,2.6-1.7,4.6-4.1,4.6
	c-1.8,0-3.2-1-4-3c-0.2-0.4-0.3-0.7-0.5-0.7c-0.3,0-1.2,0.8-2.1,2c-2.1,2.6-3.3,6-3.3,9.3v4.2c0,1.6,0.8,2.4,2.5,2.6
	c0.9,0.1,1.1,0.3,1.1,0.9v1c0,0.4-0.2,0.6-0.7,0.6h-14.3c-0.2,0-0.4-0.2-0.4-0.5v-1.1c0-0.5,0.2-0.7,1-0.8c0.7-0.2,1.1-0.4,1.6-0.7
	c0.4-0.5,0.6-1,0.6-2V18.3c0-2-0.6-2.8-2.6-3.1c-0.7-0.1-1-0.3-1-0.7v-1.2c0-0.5,0.2-0.6,0.8-0.6h10.8V19.2"/>
</svg>
